<?xml version="1.0" standalone="no"?>
<!DOCTYPE svg PUBLIC "-//W3C//DTD SVG 20010904//EN"
 "http://www.w3.org/TR/2001/REC-SVG-20010904/DTD/svg10.dtd">
<svg version="1.0" xmlns="http://www.w3.org/2000/svg"
 width="240.000000pt" height="240.000000pt" viewBox="0 0 240.000000 240.000000"
 preserveAspectRatio="xMidYMid meet">
<metadata>
Created by potrace 1.16, written by Peter Selinger 2001-2019
</metadata>
<g transform="translate(0.000000,240.000000) scale(0.100000,-0.100000)"
fill="#000000" stroke="none">
<path d="M592 1888 c-16 -16 -15 -65 1 -75 6 -4 62 -10 122 -13 l110 -5 126
-507 c69 -279 132 -514 139 -523 11 -13 66 -15 441 -15 375 0 429 2 443 16 21
21 20 47 -2 67 -16 15 -63 17 -412 19 l-394 3 -12 40 c-6 22 -15 55 -18 73
l-8 32 435 0 c401 0 435 1 449 18 12 14 168 609 168 641 0 5 -7 17 -16 25 -14
14 -83 16 -610 16 l-594 0 -10 23 c-5 12 -17 51 -26 87 -9 36 -20 71 -26 78
-14 17 -289 17 -306 0z"/>
<path d="M382 1448 c-7 -7 -12 -24 -12 -38 0 -48 10 -50 230 -50 188 0 208 2
223 18 22 24 21 45 -1 65 -16 15 -47 17 -223 17 -146 0 -208 -3 -217 -12z"/>
<path d="M240 1270 c-24 -24 -25 -39 -6 -66 14 -18 31 -19 306 -22 252 -2 295
-1 316 13 31 20 31 59 2 79 -19 14 -66 16 -310 16 -275 0 -289 -1 -308 -20z"/>
<path d="M460 1091 c-15 -28 -12 -46 8 -64 16 -15 47 -17 220 -17 216 0 232 4
232 54 0 44 -12 46 -237 46 -200 0 -213 -1 -223 -19z"/>
<path d="M1175 691 c-37 -16 -60 -51 -60 -93 0 -33 6 -45 33 -69 44 -40 93
-40 133 0 48 49 38 125 -21 156 -32 16 -55 18 -85 6z"/>
<path d="M1778 684 c-87 -47 -50 -184 49 -184 96 1 136 112 62 174 -34 29 -71
32 -111 10z"/>
</g>
</svg>
