<?xml version="1.0" standalone="no"?>
<!DOCTYPE svg PUBLIC "-//W3C//DTD SVG 20010904//EN"
 "http://www.w3.org/TR/2001/REC-SVG-20010904/DTD/svg10.dtd">
<svg version="1.0" xmlns="http://www.w3.org/2000/svg"
 width="505.000000pt" height="494.000000pt" viewBox="0 0 505.000000 494.000000"
 preserveAspectRatio="xMidYMid meet">
<metadata>
Created by potrace 1.16, written by Peter Selinger 2001-2019
</metadata>
<g transform="translate(0.000000,494.000000) scale(0.100000,-0.100000)"
fill="#000000" stroke="none">
<path d="M2335 4538 c-146 -14 -457 -82 -490 -107 -5 -5 -28 -14 -50 -21 -124
-39 -378 -176 -482 -259 -17 -14 -53 -42 -79 -61 -92 -67 -281 -264 -376 -390
-61 -81 -198 -307 -198 -326 0 -1 -13 -31 -29 -66 -15 -35 -37 -88 -47 -118
-10 -30 -21 -59 -25 -65 -4 -5 -16 -50 -28 -100 -12 -49 -25 -103 -30 -120
-28 -92 -36 -192 -35 -440 1 -192 5 -281 16 -340 44 -221 97 -383 189 -570 33
-66 65 -129 72 -140 112 -182 244 -348 367 -460 30 -27 57 -52 60 -55 3 -3 34
-28 70 -55 36 -28 67 -53 70 -56 5 -6 120 -80 165 -106 27 -16 208 -105 265
-131 42 -18 169 -61 286 -96 82 -25 219 -46 378 -58 338 -26 723 41 1013 178
29 13 62 29 75 34 40 18 165 89 238 136 42 27 118 82 130 94 3 3 27 23 55 45
121 97 311 310 395 445 84 132 180 327 215 435 9 28 20 59 25 70 18 41 60 217
77 327 21 138 24 459 4 593 -14 99 -66 320 -81 347 -6 10 -10 23 -10 29 0 17
-68 185 -107 264 -38 78 -116 206 -175 290 -116 164 -346 386 -521 503 -66 45
-251 152 -261 152 -3 0 -38 15 -79 34 -66 31 -159 63 -312 110 -180 54 -500
77 -750 54z m366 -358 c165 -14 444 -86 535 -139 10 -6 39 -20 64 -31 195 -89
421 -269 562 -450 32 -41 62 -80 66 -85 5 -6 17 -24 28 -40 10 -17 22 -32 26
-35 11 -9 148 -282 148 -297 0 -8 7 -27 15 -43 19 -37 64 -204 81 -300 20
-121 27 -323 15 -455 -13 -133 -58 -330 -103 -445 -28 -73 -139 -299 -158
-323 -5 -7 -43 -57 -84 -112 -93 -125 -168 -205 -273 -289 -121 -96 -219 -158
-323 -206 -25 -11 -53 -25 -63 -31 -30 -16 -185 -70 -277 -94 -457 -122 -952
-31 -1380 256 -84 56 -284 241 -343 317 -145 188 -260 420 -323 654 -69 256
-72 590 -8 843 83 329 227 587 455 814 288 289 659 461 1064 494 86 7 157 7
276 -3z"/>
<path d="M2448 3674 c-49 -7 -107 -20 -130 -28 -24 -7 -63 -19 -88 -26 -65
-17 -284 -119 -300 -139 -3 -3 -23 -18 -46 -33 -115 -74 -240 -222 -323 -380
-55 -106 -114 -286 -132 -403 -26 -169 -7 -543 31 -614 5 -9 16 -41 26 -71 16
-53 73 -180 85 -190 3 -3 12 -16 19 -30 46 -88 232 -275 325 -326 249 -139
421 -184 707 -184 174 0 273 12 388 46 339 103 528 347 565 730 l7 71 -38 6
c-101 15 -162 19 -168 9 -3 -6 -15 -53 -26 -106 -18 -90 -31 -125 -82 -233
-23 -50 -119 -142 -174 -167 -22 -10 -52 -24 -68 -32 -105 -50 -386 -58 -516
-14 -106 35 -180 81 -256 155 -84 82 -118 132 -167 240 -72 161 -104 367 -93
590 8 142 13 180 45 300 19 72 118 290 145 319 6 6 23 27 37 46 126 168 280
249 471 250 134 0 224 -29 324 -105 108 -83 169 -169 239 -340 21 -49 45 -108
55 -130 10 -22 23 -57 30 -77 l12 -38 61 0 c60 0 63 1 100 42 l39 43 -11 166
c-6 92 -11 220 -11 285 0 66 -3 170 -7 232 l-6 112 -88 0 -89 0 -20 -40 c-11
-22 -24 -40 -28 -40 -4 0 -52 14 -107 31 -55 17 -121 37 -146 44 -142 44 -413
57 -591 29z"/>
</g>
</svg>
