<?xml version="1.0" standalone="no"?>
<!DOCTYPE svg PUBLIC "-//W3C//DTD SVG 20010904//EN"
 "http://www.w3.org/TR/2001/REC-SVG-20010904/DTD/svg10.dtd">
<svg version="1.0" xmlns="http://www.w3.org/2000/svg"
 width="499.000000pt" height="500.000000pt" viewBox="0 0 499.000000 500.000000"
 preserveAspectRatio="xMidYMid meet">
<metadata>
Created by potrace 1.16, written by Peter Selinger 2001-2019
</metadata>
<g transform="translate(0.000000,500.000000) scale(0.100000,-0.100000)"
fill="#000000" stroke="none">
<path d="M2250 4536 c-579 -103 -1020 -513 -1137 -1060 -25 -113 -24 -360 1
-476 97 -458 379 -1080 834 -1845 184 -308 497 -795 512 -795 6 0 165 209 312
410 473 650 882 1403 1033 1904 69 230 89 350 89 546 0 132 -4 195 -17 258
-57 258 -174 470 -366 662 -194 193 -433 322 -712 385 -100 23 -443 29 -549
11z m448 -557 c318 -73 571 -338 638 -668 13 -65 15 -113 11 -205 -7 -143 -23
-209 -82 -333 -86 -177 -221 -312 -399 -398 -125 -60 -190 -76 -341 -82 -159
-6 -262 15 -401 82 -178 86 -313 221 -399 398 -59 124 -75 190 -82 333 -9 186
28 333 121 486 196 322 561 473 934 387z"/>
</g>
</svg>
