<?xml version="1.0" standalone="no"?>
<!DOCTYPE svg PUBLIC "-//W3C//DTD SVG 20010904//EN"
 "http://www.w3.org/TR/2001/REC-SVG-20010904/DTD/svg10.dtd">
<svg version="1.0" xmlns="http://www.w3.org/2000/svg"
 width="570.000000pt" height="438.000000pt" viewBox="0 0 570.000000 438.000000"
 preserveAspectRatio="xMidYMid meet">
<metadata>
Created by potrace 1.16, written by Peter Selinger 2001-2019
</metadata>
<g transform="translate(0.000000,438.000000) scale(0.100000,-0.100000)"
fill="#000000" stroke="none">
<path d="M2820 4347 c-19 -18 -50 -43 -69 -57 -18 -14 -38 -30 -45 -36 -42
-39 -318 -176 -451 -224 -49 -17 -99 -36 -110 -41 -11 -4 -45 -16 -75 -25 -30
-9 -80 -24 -110 -34 -30 -10 -95 -28 -145 -39 -88 -21 -125 -30 -202 -51 -21
-6 -67 -15 -103 -21 -36 -6 -85 -15 -110 -20 -65 -13 -262 -38 -352 -46 l-78
-6 0 -277 0 -278 36 -7 c46 -8 105 -45 133 -82 11 -15 24 -32 28 -38 16 -21
33 -67 33 -90 l0 -25 -600 0 -600 0 0 -760 0 -760 565 0 565 0 -6 -27 c-19
-79 -136 -164 -246 -178 -99 -14 -97 -11 -47 -58 48 -45 95 -87 203 -182 38
-33 81 -71 95 -85 14 -14 46 -41 71 -60 25 -19 47 -38 50 -41 3 -4 59 -50 125
-103 133 -106 125 -100 180 -141 22 -16 45 -33 50 -38 35 -28 207 -145 238
-162 20 -11 37 -23 37 -27 0 -5 7 -8 15 -8 8 0 15 -4 15 -8 0 -4 12 -13 28
-19 15 -7 54 -28 87 -48 33 -20 69 -40 80 -44 11 -5 55 -25 98 -45 42 -20 80
-36 83 -36 3 0 20 -6 37 -14 38 -17 105 -39 167 -56 25 -7 58 -16 73 -21 69
-21 287 -31 416 -20 72 6 142 15 158 20 15 5 48 14 73 21 79 22 145 44 154 52
6 4 16 8 22 8 25 0 282 124 343 166 20 13 41 24 48 24 7 0 13 5 13 10 0 6 5
10 10 10 6 0 16 5 23 10 7 6 48 34 92 63 114 75 183 124 214 150 15 12 40 31
55 42 39 28 260 206 266 214 3 3 25 22 50 41 25 19 57 46 71 60 14 14 57 52
95 85 81 71 141 125 202 182 l45 41 -39 7 c-83 14 -100 18 -144 38 -85 38
-160 116 -160 166 0 8 161 11 565 11 l565 0 0 760 0 760 -600 0 -600 0 0 25
c0 23 17 69 33 90 4 6 17 23 28 38 28 37 87 74 133 82 l36 7 0 278 0 277 -97
6 c-127 7 -296 25 -353 37 -25 5 -88 17 -140 26 -52 9 -120 23 -150 31 -30 8
-80 21 -110 28 -157 39 -244 66 -410 130 -157 59 -234 97 -380 186 -97 59
-111 70 -190 145 l-45 43 -35 -32z m76 -185 c85 -77 163 -126 316 -201 234
-113 501 -203 793 -267 39 -9 88 -20 110 -25 77 -17 261 -41 363 -46 l102 -5
0 -177 0 -176 -32 -14 c-78 -35 -169 -162 -184 -258 l-7 -43 -64 0 -64 0 7 56
c8 64 30 128 59 170 27 39 113 122 147 142 27 16 28 18 28 109 l0 93 -52 0
c-52 0 -274 31 -353 49 -22 5 -67 14 -100 21 -33 6 -85 18 -115 27 -30 8 -73
19 -95 24 -74 18 -336 100 -380 119 -11 5 -31 12 -45 16 -60 17 -284 124 -360
173 -60 38 -72 47 -100 75 -20 20 -20 20 -40 0 -61 -61 -177 -127 -380 -217
-85 -37 -397 -140 -505 -166 -22 -5 -65 -16 -95 -24 -30 -9 -82 -21 -115 -27
-33 -7 -78 -16 -100 -21 -79 -18 -301 -49 -352 -49 l-53 0 0 -95 c0 -52 3 -95
8 -95 9 0 67 -47 106 -85 73 -72 107 -140 121 -243 l7 -52 -65 0 -65 0 -7 43
c-15 95 -106 224 -182 258 l-33 14 0 176 0 177 92 5 c145 9 280 31 553 93 39
9 79 19 90 24 11 4 40 13 65 20 62 17 141 41 165 51 11 4 63 22 115 40 52 17
99 36 104 40 6 5 16 9 22 9 14 0 135 54 239 107 85 43 203 121 246 163 18 16
35 30 38 30 3 0 25 -17 47 -38z m16 -289 c35 -27 77 -55 93 -63 17 -8 32 -17
35 -20 3 -3 17 -11 33 -17 26 -12 27 -16 27 -83 0 -40 -4 -70 -10 -70 -10 0
-72 29 -135 63 l-30 17 -3 -375 -2 -375 -70 0 -70 0 -2 375 -3 375 -30 -17
c-63 -34 -125 -63 -135 -63 -6 0 -10 30 -10 70 0 67 1 71 28 82 38 17 186 114
202 133 7 8 14 15 16 15 1 0 31 -21 66 -47z m-370 -185 l28 -32 0 -326 0 -327
-30 -26 c-30 -27 -31 -27 -186 -27 -167 0 -209 10 -220 55 -3 11 -4 140 -2
287 3 251 4 268 22 281 24 17 64 38 131 67 28 12 77 34 110 50 81 39 111 38
147 -2z m775 -4 c43 -20 94 -43 113 -51 55 -24 95 -44 116 -60 18 -13 19 -30
22 -293 l3 -278 -28 -26 c-28 -26 -29 -26 -188 -26 -171 0 -187 5 -214 57 -14
27 -15 610 -1 647 14 39 42 64 72 65 14 1 62 -15 105 -35z m-1247 -439 l0
-295 -70 0 -69 0 -3 93 -3 92 -24 -45 c-13 -25 -32 -62 -42 -82 -25 -49 -33
-52 -50 -20 -8 15 -16 29 -19 32 -3 3 -14 22 -25 43 -11 21 -23 41 -27 43 -5
3 -8 -31 -8 -75 l0 -81 -78 0 -78 0 -1 243 -1 243 52 12 c97 23 97 23 144 -78
24 -49 46 -90 50 -90 4 0 13 15 21 33 8 17 23 52 34 77 11 25 25 63 32 84 13
44 48 63 123 65 l42 1 0 -295z m1705 270 c144 -33 243 -58 282 -72 68 -25 78
-42 81 -148 4 -89 3 -93 -23 -119 -14 -14 -22 -26 -18 -26 23 0 43 -61 43
-129 l0 -71 -73 0 -72 0 3 75 4 75 -91 0 -91 0 0 -75 0 -75 -70 0 -70 0 0 296
c0 278 1 296 18 289 9 -3 44 -12 77 -20z m1785 -1325 l0 -620 -2710 0 -2710 0
0 620 0 620 2710 0 2710 0 0 -620z m-4144 -807 c-13 -92 -48 -164 -110 -231
-35 -37 -42 -26 85 -128 108 -87 131 -104 238 -181 47 -34 91 -66 97 -71 6 -5
30 -22 55 -37 24 -16 50 -34 57 -42 7 -7 19 -13 27 -13 7 0 15 -4 17 -8 14
-34 446 -264 603 -321 135 -49 134 -49 219 -65 164 -33 301 -14 531 72 44 17
108 44 142 61 34 17 66 31 72 31 5 0 11 3 13 8 2 4 36 23 75 42 40 19 73 38
73 43 0 4 5 7 11 7 10 0 256 149 283 171 6 5 56 40 111 79 55 38 105 73 110
77 6 4 37 28 70 53 33 25 65 50 71 55 6 6 25 21 43 35 17 14 50 41 73 61 l42
37 -41 46 c-48 55 -67 91 -88 172 -24 95 -25 94 49 94 64 0 64 0 71 -31 25
-112 103 -204 199 -234 17 -5 15 -9 -19 -37 -21 -18 -48 -41 -59 -53 -12 -11
-48 -42 -81 -70 -33 -27 -67 -56 -75 -65 -8 -9 -42 -38 -75 -65 -33 -28 -65
-54 -71 -60 -35 -31 -145 -117 -219 -173 -6 -4 -30 -23 -55 -42 -25 -20 -58
-44 -75 -55 -16 -10 -34 -22 -40 -27 -72 -62 -397 -240 -530 -290 -317 -119
-618 -119 -930 0 -139 53 -481 242 -549 304 -11 10 -23 18 -27 18 -4 0 -14 6
-21 13 -7 6 -31 25 -53 41 -22 17 -42 33 -45 36 -3 3 -16 13 -30 21 -20 13
-153 121 -232 188 -7 6 -24 21 -38 32 -14 11 -39 33 -55 47 -17 15 -62 54
-100 87 -39 33 -72 63 -75 66 -3 4 -24 23 -48 42 -44 37 -44 40 1 51 72 17
154 122 172 220 l7 36 65 0 65 0 -6 -47z m484 -18 l0 -65 -95 0 -95 0 0 -75
c0 -41 5 -85 11 -98 6 -13 60 -56 120 -96 l109 -73 0 -89 c0 -88 -6 -102 -32
-76 -7 7 -42 33 -78 57 -36 24 -71 50 -78 57 -7 7 -17 13 -21 13 -4 0 -16 8
-27 18 -11 9 -42 33 -69 51 -88 61 -85 54 -85 234 0 216 -9 207 192 207 l148
0 0 -65z m242 -42 l35 -108 22 50 c12 28 34 76 49 107 l27 58 78 0 c42 0 77
-3 77 -7 0 -4 -29 -66 -64 -137 -35 -72 -78 -160 -95 -195 l-31 -65 0 -213 c0
-117 -3 -213 -6 -213 -7 0 -66 32 -74 40 -3 3 -22 14 -42 24 l-38 19 0 188 c0
116 -4 199 -11 216 -6 15 -15 37 -20 48 -4 11 -22 63 -40 115 -17 52 -35 100
-39 105 -4 6 -11 25 -15 43 l-7 32 80 0 80 0 34 -107z m688 47 l0 -60 -97 0
c-54 0 -105 -5 -113 -10 -22 -14 -28 -671 -7 -704 9 -14 53 -36 116 -60 l101
-38 0 -66 0 -65 -52 6 c-53 6 -118 28 -263 93 -75 33 -70 0 -70 474 l0 426 30
32 30 31 163 1 162 0 0 -60z m220 -380 c0 -362 2 -440 13 -440 8 0 51 13 97
30 46 16 85 30 87 30 1 0 3 -33 3 -74 l0 -74 -57 -20 c-141 -50 -183 -62 -241
-68 l-62 -7 0 532 0 531 80 0 80 0 0 -440z m590 381 l0 -59 -95 -4 c-71 -2
-98 -7 -105 -18 -5 -8 -10 -50 -10 -92 l0 -78 80 0 80 0 0 -65 0 -65 -80 0
-81 0 3 -116 c4 -150 8 -153 107 -89 107 68 101 69 101 -21 l0 -79 -70 -43
c-111 -68 -216 -122 -239 -122 -11 0 -30 9 -41 20 -20 20 -21 30 -18 431 l3
411 30 24 c29 23 37 24 183 24 l152 0 0 -59z m490 -6 l0 -65 -131 0 -130 0 3
-27 3 -28 105 -6 c58 -4 106 -7 108 -8 1 0 11 -16 22 -33 15 -24 20 -51 20
-101 0 -81 -14 -112 -70 -152 -23 -16 -47 -35 -54 -42 -7 -6 -44 -30 -82 -53
-38 -24 -71 -46 -74 -50 -3 -4 -15 -10 -27 -14 -13 -4 -23 -12 -23 -17 0 -5
-7 -9 -15 -9 -8 0 -15 -4 -15 -10 0 -5 -11 -12 -25 -16 -14 -3 -25 -10 -25
-15 0 -5 -4 -9 -10 -9 -6 0 -10 36 -10 88 l0 89 35 19 c19 10 35 22 35 26 0 5
5 8 10 8 6 0 16 5 23 11 7 5 41 29 77 52 43 28 66 50 68 65 3 22 1 22 -96 22
-94 0 -101 1 -126 26 -25 26 -26 30 -26 148 0 172 -10 165 238 165 l192 1 0
-65z"/>
<path d="M2345 3520 c-33 -17 -66 -38 -73 -48 -9 -12 -12 -62 -10 -192 l3
-175 85 0 85 0 3 223 c3 255 9 243 -93 192z"/>
<path d="M3262 3328 l3 -223 85 0 85 0 3 182 c2 176 2 182 -20 202 -12 12 -28
21 -35 21 -8 0 -31 9 -53 20 -74 38 -71 46 -68 -202z"/>
<path d="M3820 3311 l0 -71 90 0 90 0 0 35 c0 50 -33 80 -96 89 -27 4 -57 9
-66 12 -16 5 -18 -3 -18 -65z"/>
<path d="M280 2190 l0 -480 2570 0 2570 0 0 480 0 480 -2570 0 -2570 0 0 -480z
m1438 -258 l52 -3 0 -55 0 -54 -115 0 -115 0 0 370 0 369 58 3 57 3 5 -315 5
-315 53 -3z m694 605 c-5 -7 -13 -30 -17 -52 -4 -22 -10 -44 -14 -50 -4 -5
-20 -50 -35 -100 -16 -49 -35 -109 -44 -133 -12 -35 -14 -73 -8 -212 l6 -170
-64 0 -64 0 -4 213 c-3 124 -9 224 -16 242 -6 17 -19 57 -28 90 -9 33 -20 70
-24 81 -5 12 -12 42 -15 68 l-7 47 63 -3 64 -3 7 -55 c19 -141 30 -154 48 -62
6 31 17 71 23 89 10 31 13 32 71 35 62 3 76 -3 58 -25z m-1882 -117 l0 -140
40 0 40 0 0 140 0 140 65 0 65 0 0 -370 0 -370 -65 0 -65 0 0 155 0 155 -40 0
-40 0 0 -155 0 -155 -65 0 -65 0 0 370 0 370 65 0 65 0 0 -140z m515 93 c3
-27 10 -79 15 -118 5 -38 12 -97 15 -130 3 -33 10 -91 15 -130 5 -38 14 -108
20 -155 6 -47 13 -102 15 -122 l5 -38 -54 0 c-30 0 -58 5 -62 11 -3 6 -9 43
-13 82 l-6 72 -42 3 c-25 2 -44 -1 -44 -7 -1 -6 -3 -15 -4 -21 -1 -5 -3 -39
-4 -75 l-1 -65 -70 0 c-85 0 -81 -25 -40 250 6 41 17 125 25 185 8 61 19 144
24 185 6 41 10 85 11 98 0 21 3 22 94 22 l95 0 6 -47z m391 31 c40 -27 54 -65
54 -152 0 -81 -12 -135 -37 -163 -12 -14 -10 -22 12 -60 23 -41 25 -54 25
-171 0 -70 4 -138 10 -152 l10 -26 -65 0 -65 0 0 115 c0 127 -10 163 -49 171
-14 3 -32 7 -38 10 -10 2 -13 -31 -13 -146 l0 -150 -60 0 -60 0 0 370 0 370
125 0 c100 0 131 -3 151 -16z m624 -29 l0 -45 -65 0 -65 0 0 -95 0 -95 65 0
65 0 0 -60 0 -60 -65 0 -65 0 0 -120 0 -120 65 0 65 0 0 -50 0 -50 -130 0
-130 0 0 370 0 370 130 0 130 0 0 -45z m861 28 c15 -9 33 -29 39 -43 7 -17 10
-125 8 -322 l-3 -296 -35 -31 c-35 -31 -36 -31 -152 -31 l-118 0 0 370 0 370
116 0 c91 0 122 -4 145 -17z m349 0 c0 -10 5 -56 10 -103 6 -47 17 -141 25
-210 8 -69 19 -159 25 -200 5 -41 13 -105 18 -142 l8 -68 -57 0 c-63 0 -69 6
-69 70 0 20 -3 52 -6 69 -6 28 -10 31 -44 31 l-38 0 -8 -52 c-4 -29 -9 -56
-10 -60 -1 -5 -2 -19 -3 -33 -1 -24 -3 -25 -69 -25 l-68 0 12 103 c7 56 17
136 23 177 6 41 18 127 26 190 8 63 19 147 25 185 5 39 9 73 10 78 0 4 43 7
95 7 84 0 95 -2 95 -17z m174 9 c3 -5 10 -51 15 -103 6 -52 13 -103 15 -114 2
-11 5 -45 6 -75 1 -43 3 -50 10 -33 8 20 17 87 37 276 l6 57 64 0 c58 0 64 -2
58 -17 -4 -10 -11 -52 -16 -93 -15 -130 -40 -322 -69 -525 -5 -38 -9 -78 -10
-87 0 -15 -10 -18 -64 -18 -75 0 -69 -11 -92 170 -7 63 -18 147 -24 185 -6 39
-17 122 -24 185 -8 63 -18 134 -22 158 l-7 42 56 0 c31 0 58 -4 61 -8z m366
-362 l0 -370 -65 0 -65 0 0 370 0 370 65 0 65 0 0 -370z m324 336 l36 -33 0
-286 c0 -164 -4 -297 -10 -312 -5 -14 -22 -37 -36 -50 -26 -24 -33 -25 -150
-25 l-124 0 0 370 0 370 124 0 125 0 35 -34z m325 17 c17 -10 31 -21 31 -25 0
-4 6 -13 13 -20 23 -24 37 -69 37 -118 l0 -50 -60 0 -60 0 0 64 c0 58 -2 65
-22 72 -32 10 -48 -20 -48 -90 0 -70 12 -88 95 -145 94 -65 95 -67 95 -192 0
-104 -2 -113 -27 -148 -36 -51 -75 -71 -133 -71 -104 0 -150 62 -150 204 l0
86 60 0 60 0 0 -81 c0 -44 5 -89 10 -100 11 -20 45 -26 55 -9 8 13 9 150 1
176 -3 11 -42 46 -86 78 -44 31 -85 66 -91 78 -6 11 -11 61 -11 110 1 97 17
137 70 177 35 26 118 28 161 4z m351 -6 c69 -46 75 -67 78 -307 5 -290 2 -311
-54 -366 -40 -40 -48 -44 -93 -44 -45 0 -111 25 -111 42 0 4 -6 13 -13 20 -33
35 -37 69 -37 308 0 237 4 273 36 307 7 7 14 16 16 20 1 5 14 16 28 25 37 25
110 23 150 -5z m309 -39 c22 -123 39 -199 45 -205 3 -4 6 55 6 130 l0 137 60
0 60 0 0 -370 0 -370 -74 0 c-85 0 -78 -9 -101 130 -49 286 -53 290 -54 63
l-1 -193 -60 0 -60 0 0 370 0 370 84 0 83 0 12 -62z m-2509 -298 l0 -61 -107
3 -108 3 -3 44 c-5 71 -5 71 113 71 l105 0 0 -60z"/>
<path d="M1280 2359 l0 -111 26 6 c47 12 74 54 74 115 0 49 -39 101 -76 101
-24 0 -24 0 -24 -111z"/>
<path d="M2780 2209 l0 -271 23 6 c12 3 25 6 28 6 22 0 29 67 29 264 0 212 0
213 -25 240 -13 14 -31 26 -40 26 -13 0 -15 -33 -15 -271z"/>
<path d="M3980 2210 c0 -288 0 -288 48 -254 22 15 22 18 22 254 0 236 0 239
-22 254 -48 34 -48 34 -48 -254z"/>
<path d="M4718 2463 c-17 -4 -18 -26 -18 -273 0 -260 1 -269 20 -275 11 -3 29
-3 40 0 19 6 20 15 20 276 0 157 -4 269 -9 269 -5 0 -15 2 -23 4 -7 2 -21 2
-30 -1z"/>
</g>
</svg>
