<?xml version="1.0" standalone="no"?>
<!DOCTYPE svg PUBLIC "-//W3C//DTD SVG 20010904//EN"
 "http://www.w3.org/TR/2001/REC-SVG-20010904/DTD/svg10.dtd">
<svg version="1.0" xmlns="http://www.w3.org/2000/svg"
 width="512.000000pt" height="512.000000pt" viewBox="0 0 512.000000 512.000000"
 preserveAspectRatio="xMidYMid meet">
<metadata>
Created by potrace 1.16, written by Peter Selinger 2001-2019
</metadata>
<g transform="translate(0.000000,512.000000) scale(0.100000,-0.100000)"
fill="#000000" stroke="none">
<path d="M2265 5049 c-753 -90 -1432 -523 -1835 -1169 -181 -290 -309 -652
-355 -1003 -20 -156 -20 -478 0 -634 73 -555 320 -1059 715 -1453 323 -324
728 -554 1162 -660 233 -57 309 -65 613 -65 248 0 295 3 408 23 270 49 501
126 732 246 248 128 431 261 625 456 204 203 335 385 471 655 128 254 206 510
244 798 20 156 20 478 0 634 -73 556 -319 1058 -715 1453 -209 210 -412 354
-685 486 -223 108 -411 168 -672 215 -95 17 -167 22 -373 25 -140 1 -291 -2
-335 -7z m1873 -1020 c3 -14 -611 -2908 -624 -2943 -3 -9 -13 -16 -21 -16 -7
0 -233 156 -501 347 -268 190 -494 347 -503 347 -9 1 -139 -115 -289 -257
-201 -191 -277 -257 -292 -255 -18 3 -48 80 -210 553 -104 302 -190 551 -192
552 -2 2 -187 60 -412 129 -695 213 -636 192 -632 217 3 24 80 53 2268 848
652 237 1226 446 1275 464 96 36 128 40 133 14z"/>
<path d="M3425 3518 c-35 -20 -1720 -1071 -1728 -1078 -8 -7 233 -800 243
-800 4 0 16 102 29 228 12 125 24 237 27 249 2 14 232 225 597 550 853 760
902 805 905 823 2 10 -8 21 -23 28 -31 14 -25 14 -50 0z"/>
</g>
</svg>
